<svg width="1527" height="303" viewBox="0 0 1527 303" fill="none" xmlns="http://www.w3.org/2000/svg">
<g opacity="0.8">
<mask id="path-1-outside-1_15_1661" maskUnits="userSpaceOnUse" x="-2" y="-1.21484" width="1531" height="306" fill="black">
<rect fill="white" x="-2" y="-1.21484" width="1531" height="306"/>
<path d="M103.18 302.345C42.57 302.345 0.58 273.085 0.58 215.705V204.495H59.67V214.565C59.67 240.785 74.3 255.035 103.37 255.035C132.63 255.035 148.78 246.295 148.78 225.205C148.78 202.595 119.9 189.295 81.52 177.515C39.15 164.215 2.48 140.275 2.48 91.2552C2.48 41.8551 45.42 13.3551 102.42 13.3551C161.89 13.3551 204.07 41.2852 204.07 95.8151V107.215H145.17V98.4752C145.17 73.9651 132.06 60.2852 103.18 60.2852C75.25 60.2852 59.29 70.1651 59.29 91.2552C59.29 114.245 86.27 124.885 123.13 137.425C173.48 154.715 206.16 174.475 206.16 223.495C206.16 274.035 164.36 302.345 103.18 302.345ZM422.398 96.0051L361.218 297.785H281.798L219.288 96.0051H280.088L321.508 261.305L361.408 96.0051H422.398ZM535.843 302.155C470.483 302.155 425.453 258.645 425.453 196.895C425.453 135.145 470.483 92.3951 535.843 92.3951C601.203 92.3951 646.233 135.145 646.233 196.895C646.233 258.645 601.203 302.155 535.843 302.155ZM535.843 255.415C566.433 255.415 586.573 232.425 586.573 196.895C586.573 161.555 566.433 139.135 535.843 139.135C505.253 139.135 485.113 161.555 485.113 196.895C485.113 232.425 505.253 255.415 535.843 255.415ZM850.492 63.1352H781.522V297.785H722.812V63.1352H654.032V17.5352H850.492V63.1352ZM1059.75 234.135C1056.52 268.525 1018.9 302.345 953.157 302.345C886.277 302.345 842.577 259.215 842.577 197.275C842.577 134.575 887.607 92.2052 953.347 92.2052C1020.61 92.2052 1062.6 134.955 1062.6 198.985C1062.6 205.255 1062.22 211.715 1061.84 214.565H902.237C907.557 241.925 925.227 257.695 955.627 257.695C987.357 257.695 1000.28 244.965 1001.61 234.135H1059.75ZM954.107 136.285C927.127 136.285 908.887 150.535 902.807 175.615H1002.37C1000.66 155.475 985.457 136.285 954.107 136.285ZM1193.46 302.345C1126.77 302.345 1082.5 259.405 1082.5 196.325C1082.5 133.245 1126.77 92.2052 1193.46 92.2052C1259.77 92.2052 1295.87 135.905 1295.87 173.335V174.855H1237.54C1237.54 173.335 1237.35 172.005 1236.97 170.485C1233.93 154.525 1220.44 139.515 1193.08 139.515C1164.01 139.515 1142.16 159.275 1142.16 196.325C1142.16 232.995 1163.82 255.035 1193.08 255.035C1222.91 255.035 1235.64 239.455 1237.54 220.455H1295.87C1295.87 258.265 1260.72 302.345 1193.46 302.345ZM1325.05 297.785V0.81514H1383.95V123.365C1398.96 103.795 1422.71 92.2052 1451.78 92.2052C1501.18 92.2052 1526.07 122.795 1526.07 174.475V297.785H1467.17V191.005C1467.17 160.035 1457.67 142.555 1428.22 142.555C1399.15 142.555 1383.95 160.985 1383.95 189.105V297.785H1325.05Z"/>
</mask>
<path d="M103.18 302.345C42.57 302.345 0.58 273.085 0.58 215.705V204.495H59.67V214.565C59.67 240.785 74.3 255.035 103.37 255.035C132.63 255.035 148.78 246.295 148.78 225.205C148.78 202.595 119.9 189.295 81.52 177.515C39.15 164.215 2.48 140.275 2.48 91.2552C2.48 41.8551 45.42 13.3551 102.42 13.3551C161.89 13.3551 204.07 41.2852 204.07 95.8151V107.215H145.17V98.4752C145.17 73.9651 132.06 60.2852 103.18 60.2852C75.25 60.2852 59.29 70.1651 59.29 91.2552C59.29 114.245 86.27 124.885 123.13 137.425C173.48 154.715 206.16 174.475 206.16 223.495C206.16 274.035 164.36 302.345 103.18 302.345ZM422.398 96.0051L361.218 297.785H281.798L219.288 96.0051H280.088L321.508 261.305L361.408 96.0051H422.398ZM535.843 302.155C470.483 302.155 425.453 258.645 425.453 196.895C425.453 135.145 470.483 92.3951 535.843 92.3951C601.203 92.3951 646.233 135.145 646.233 196.895C646.233 258.645 601.203 302.155 535.843 302.155ZM535.843 255.415C566.433 255.415 586.573 232.425 586.573 196.895C586.573 161.555 566.433 139.135 535.843 139.135C505.253 139.135 485.113 161.555 485.113 196.895C485.113 232.425 505.253 255.415 535.843 255.415ZM850.492 63.1352H781.522V297.785H722.812V63.1352H654.032V17.5352H850.492V63.1352ZM1059.75 234.135C1056.52 268.525 1018.9 302.345 953.157 302.345C886.277 302.345 842.577 259.215 842.577 197.275C842.577 134.575 887.607 92.2052 953.347 92.2052C1020.61 92.2052 1062.6 134.955 1062.6 198.985C1062.6 205.255 1062.22 211.715 1061.84 214.565H902.237C907.557 241.925 925.227 257.695 955.627 257.695C987.357 257.695 1000.28 244.965 1001.61 234.135H1059.75ZM954.107 136.285C927.127 136.285 908.887 150.535 902.807 175.615H1002.37C1000.66 155.475 985.457 136.285 954.107 136.285ZM1193.46 302.345C1126.77 302.345 1082.5 259.405 1082.5 196.325C1082.5 133.245 1126.77 92.2052 1193.46 92.2052C1259.77 92.2052 1295.87 135.905 1295.87 173.335V174.855H1237.54C1237.54 173.335 1237.35 172.005 1236.97 170.485C1233.93 154.525 1220.44 139.515 1193.08 139.515C1164.01 139.515 1142.16 159.275 1142.16 196.325C1142.16 232.995 1163.82 255.035 1193.08 255.035C1222.91 255.035 1235.64 239.455 1237.54 220.455H1295.87C1295.87 258.265 1260.72 302.345 1193.46 302.345ZM1325.05 297.785V0.81514H1383.95V123.365C1398.96 103.795 1422.71 92.2052 1451.78 92.2052C1501.18 92.2052 1526.07 122.795 1526.07 174.475V297.785H1467.17V191.005C1467.17 160.035 1457.67 142.555 1428.22 142.555C1399.15 142.555 1383.95 160.985 1383.95 189.105V297.785H1325.05Z" fill="url(#paint0_linear_15_1661)"/>
<path d="M0.580001 204.495V202.495H-1.42V204.495H0.580001ZM59.67 204.495H61.67V202.495H59.67V204.495ZM81.52 177.515L80.921 179.423L80.9332 179.427L81.52 177.515ZM204.07 107.215V109.215H206.07V107.215H204.07ZM145.17 107.215H143.17V109.215H145.17V107.215ZM123.13 137.425L123.78 135.534L123.774 135.532L123.13 137.425ZM103.18 300.345C73.1667 300.345 48.0118 293.098 30.4021 278.982C12.8544 264.916 2.58 243.859 2.58 215.705H-1.42C-1.42 244.931 9.3006 267.194 27.9004 282.103C46.4382 296.963 72.5833 304.345 103.18 304.345V300.345ZM2.58 215.705V204.495H-1.42V215.705H2.58ZM0.580001 206.495H59.67V202.495H0.580001V206.495ZM57.67 204.495V214.565H61.67V204.495H57.67ZM57.67 214.565C57.67 228.041 61.4378 238.762 69.2504 246.091C77.041 253.4 88.5358 257.035 103.37 257.035V253.035C89.1342 253.035 78.779 249.546 71.9871 243.174C65.2172 236.823 61.67 227.309 61.67 214.565H57.67ZM103.37 257.035C118.128 257.035 129.937 254.844 138.109 249.724C146.452 244.497 150.78 236.36 150.78 225.205H146.78C146.78 235.141 143.033 241.919 135.986 246.334C128.768 250.856 117.872 253.035 103.37 253.035V257.035ZM150.78 225.205C150.78 212.892 142.87 203.385 130.614 195.61C118.354 187.832 101.317 181.499 82.1068 175.603L80.9332 179.427C100.103 185.311 116.696 191.518 128.471 198.988C140.25 206.46 146.78 214.908 146.78 225.205H150.78ZM82.119 175.607C61.07 169 41.639 159.807 27.4906 146.332C13.4051 132.917 4.48 115.193 4.48 91.2552H0.480001C0.480001 116.337 9.88991 135.093 24.7319 149.228C39.511 163.304 59.6 172.731 80.921 179.423L82.119 175.607ZM4.48 91.2552C4.48 67.2082 14.8991 48.3196 32.2695 35.3842C49.6967 22.4065 74.2266 15.3551 102.42 15.3551V11.3551C73.6134 11.3551 48.1733 18.5538 29.8805 32.1761C11.5309 45.8407 0.480001 65.9021 0.480001 91.2552H4.48ZM102.42 15.3551C131.874 15.3551 156.808 22.2756 174.329 35.723C191.78 49.1167 202.07 69.127 202.07 95.8151H206.07C206.07 67.9733 195.27 46.7536 176.764 32.5498C158.327 18.3997 132.436 11.3551 102.42 11.3551V15.3551ZM202.07 95.8151V107.215H206.07V95.8151H202.07ZM204.07 105.215H145.17V109.215H204.07V105.215ZM147.17 107.215V98.4752H143.17V107.215H147.17ZM147.17 98.4752C147.17 85.8763 143.794 75.7163 136.376 68.7326C128.98 61.77 117.902 58.2852 103.18 58.2852V62.2852C117.338 62.2852 127.255 65.6403 133.634 71.6451C139.991 77.629 143.17 86.564 143.17 98.4752H147.17ZM103.18 58.2852C89.0367 58.2852 77.5937 60.7766 69.6338 66.2095C61.5457 71.7299 57.29 80.1265 57.29 91.2552H61.29C61.29 81.2938 65.0143 74.2054 71.8887 69.5133C78.8914 64.7337 89.3933 62.2852 103.18 62.2852V58.2852ZM57.29 91.2552C57.29 103.731 64.6891 112.675 76.3269 119.954C87.9102 127.2 104.098 133.063 122.486 139.319L123.774 135.532C105.302 129.247 89.5698 123.52 78.4481 116.563C67.3809 109.64 61.29 101.77 61.29 91.2552H57.29ZM122.48 139.317C147.62 147.95 168.037 157.105 182.176 170.037C196.202 182.865 204.16 199.513 204.16 223.495H208.16C208.16 198.457 199.778 180.715 184.876 167.086C170.088 153.56 148.99 144.191 123.78 135.534L122.48 139.317ZM204.16 223.495C204.16 248.142 194.002 267.254 176.423 280.265C158.774 293.328 133.493 300.345 103.18 300.345V304.345C134.047 304.345 160.256 297.208 178.802 283.48C197.418 269.702 208.16 249.388 208.16 223.495H204.16ZM422.398 96.0051L424.312 96.5855L425.094 94.0051H422.398V96.0051ZM361.218 297.785V299.785H362.701L363.132 298.365L361.218 297.785ZM281.798 297.785L279.887 298.377L280.324 299.785H281.798V297.785ZM219.288 96.0051V94.0051H216.574L217.377 96.597L219.288 96.0051ZM280.088 96.0051L282.028 95.519L281.648 94.0051H280.088V96.0051ZM321.508 261.305L319.568 261.791L323.452 261.774L321.508 261.305ZM361.408 96.0051V94.0051H359.833L359.464 95.5359L361.408 96.0051ZM420.484 95.4248L359.304 297.205L363.132 298.365L424.312 96.5855L420.484 95.4248ZM361.218 295.785H281.798V299.785H361.218V295.785ZM283.708 297.193L221.198 95.4133L217.377 96.597L279.887 298.377L283.708 297.193ZM219.288 98.0051H280.088V94.0051H219.288V98.0051ZM278.148 96.4913L319.568 261.791L323.448 260.819L282.028 95.519L278.148 96.4913ZM323.452 261.774L363.352 96.4744L359.464 95.5359L319.564 260.836L323.452 261.774ZM361.408 98.0051H422.398V94.0051H361.408V98.0051ZM535.843 300.155C503.613 300.155 476.531 289.434 457.521 271.237C438.516 253.045 427.453 227.265 427.453 196.895H423.453C423.453 228.275 434.905 255.125 454.755 274.126C474.599 293.121 502.713 304.155 535.843 304.155V300.155ZM427.453 196.895C427.453 166.527 438.514 140.941 457.513 122.941C476.52 104.933 503.603 94.3951 535.843 94.3951V90.3951C502.722 90.3951 474.61 101.233 454.762 120.037C434.906 138.849 423.453 165.514 423.453 196.895H427.453ZM535.843 94.3951C568.082 94.3951 595.165 104.933 614.172 122.941C633.171 140.941 644.233 166.527 644.233 196.895H648.233C648.233 165.514 636.779 138.849 616.923 120.037C597.075 101.233 568.963 90.3951 535.843 90.3951V94.3951ZM644.233 196.895C644.233 227.265 633.169 253.045 614.165 271.237C595.154 289.434 568.073 300.155 535.843 300.155V304.155C568.973 304.155 597.086 293.121 616.931 274.126C636.781 255.125 648.233 228.275 648.233 196.895H644.233ZM535.843 257.415C551.672 257.415 564.922 251.449 574.188 240.791C583.431 230.16 588.573 215.028 588.573 196.895H584.573C584.573 214.293 579.644 228.42 571.17 238.167C562.719 247.886 550.603 253.415 535.843 253.415V257.415ZM588.573 196.895C588.573 178.854 583.429 163.905 574.177 153.438C564.904 142.947 551.656 137.135 535.843 137.135V141.135C550.619 141.135 562.736 146.534 571.18 156.087C579.646 165.665 584.573 179.596 584.573 196.895H588.573ZM535.843 137.135C520.029 137.135 506.781 142.947 497.508 153.438C488.256 163.905 483.113 178.854 483.113 196.895H487.113C487.113 179.596 492.039 165.665 500.505 156.087C508.949 146.534 521.066 141.135 535.843 141.135V137.135ZM483.113 196.895C483.113 215.028 488.254 230.16 497.497 240.791C506.764 251.449 520.013 257.415 535.843 257.415V253.415C521.082 253.415 508.967 247.886 500.516 238.167C492.041 228.42 487.113 214.293 487.113 196.895H483.113ZM850.492 63.1352V65.1352H852.492V63.1352H850.492ZM781.522 63.1352V61.1352H779.522V63.1352H781.522ZM781.522 297.785V299.785H783.522V297.785H781.522ZM722.812 297.785H720.812V299.785H722.812V297.785ZM722.812 63.1352H724.812V61.1352H722.812V63.1352ZM654.032 63.1352H652.032V65.1352H654.032V63.1352ZM654.032 17.5352V15.5352H652.032V17.5352H654.032ZM850.492 17.5352H852.492V15.5352H850.492V17.5352ZM850.492 61.1352H781.522V65.1352H850.492V61.1352ZM779.522 63.1352V297.785H783.522V63.1352H779.522ZM781.522 295.785H722.812V299.785H781.522V295.785ZM724.812 297.785V63.1352H720.812V297.785H724.812ZM722.812 61.1352H654.032V65.1352H722.812V61.1352ZM656.032 63.1352V17.5352H652.032V63.1352H656.032ZM654.032 19.5352H850.492V15.5352H654.032V19.5352ZM848.492 17.5352V63.1352H852.492V17.5352H848.492ZM1059.75 234.135L1061.74 234.322L1061.94 232.135H1059.75V234.135ZM1061.84 214.565V216.565H1063.59L1063.82 214.829L1061.84 214.565ZM902.237 214.565V212.565H899.81L900.274 214.947L902.237 214.565ZM1001.61 234.135V232.135H999.837L999.622 233.891L1001.61 234.135ZM902.807 175.615L900.863 175.144L900.264 177.615H902.807V175.615ZM1002.37 175.615V177.615H1004.54L1004.36 175.446L1002.37 175.615ZM1057.76 233.948C1054.66 266.9 1018.34 300.345 953.157 300.345V304.345C1019.46 304.345 1058.37 270.15 1061.74 234.322L1057.76 233.948ZM953.157 300.345C920.152 300.345 893.03 289.71 874.172 271.595C855.32 253.486 844.577 227.759 844.577 197.275H840.577C840.577 228.732 851.684 255.54 871.401 274.48C891.113 293.415 919.281 304.345 953.157 304.345V300.345ZM844.577 197.275C844.577 166.424 855.643 140.699 874.684 122.68C893.734 104.652 920.909 94.2052 953.347 94.2052V90.2052C920.044 90.2052 891.835 100.943 871.935 119.775C852.025 138.616 840.577 165.426 840.577 197.275H844.577ZM953.347 94.2052C986.546 94.2052 1013.32 104.747 1031.79 123.006C1050.25 141.264 1060.6 167.416 1060.6 198.985H1064.6C1064.6 166.524 1053.94 139.286 1034.6 120.162C1015.26 101.038 987.407 90.2052 953.347 90.2052V94.2052ZM1060.6 198.985C1060.6 205.21 1060.22 211.573 1059.85 214.301L1063.82 214.829C1064.22 211.857 1064.6 205.3 1064.6 198.985H1060.6ZM1061.84 212.565H902.237V216.565H1061.84V212.565ZM900.274 214.947C902.999 228.964 908.93 240.205 918.251 247.93C927.573 255.657 940.078 259.695 955.627 259.695V255.695C940.776 255.695 929.246 251.848 920.803 244.85C912.358 237.851 906.794 227.526 904.2 214.183L900.274 214.947ZM955.627 259.695C987.698 259.695 1002.07 246.758 1003.59 234.379L999.622 233.891C998.482 243.172 987.016 255.695 955.627 255.695V259.695ZM1001.61 236.135H1059.75V232.135H1001.61V236.135ZM954.107 134.285C940.26 134.285 928.503 137.946 919.399 144.961C910.291 151.978 903.993 162.233 900.863 175.144L904.751 176.086C907.701 163.917 913.563 154.507 921.84 148.129C930.121 141.749 940.974 138.285 954.107 138.285V134.285ZM902.807 177.615H1002.37V173.615H902.807V177.615ZM1004.36 175.446C1003.47 164.936 999.048 154.618 990.708 146.927C982.352 139.222 970.206 134.285 954.107 134.285V138.285C969.357 138.285 980.486 142.943 987.996 149.868C995.521 156.807 999.556 166.155 1000.37 175.784L1004.36 175.446ZM1295.87 174.855V176.855H1297.87V174.855H1295.87ZM1237.54 174.855H1235.54V176.855H1237.54V174.855ZM1236.97 170.485L1235 170.859L1235.01 170.915L1235.03 170.97L1236.97 170.485ZM1237.54 220.455V218.455H1235.73L1235.55 220.256L1237.54 220.455ZM1295.87 220.455H1297.87V218.455H1295.87V220.455ZM1193.46 300.345C1160.55 300.345 1133.33 289.757 1114.35 271.547C1095.38 253.344 1084.5 227.38 1084.5 196.325H1080.5C1080.5 228.35 1091.74 255.396 1111.58 274.433C1131.41 293.464 1159.68 304.345 1193.46 304.345V300.345ZM1084.5 196.325C1084.5 165.274 1095.38 139.795 1114.33 122.071C1133.3 104.334 1160.52 94.2052 1193.46 94.2052V90.2052C1159.7 90.2052 1131.44 100.596 1111.6 119.149C1091.75 137.715 1080.5 164.297 1080.5 196.325H1084.5ZM1193.46 94.2052C1258.86 94.2052 1293.87 137.2 1293.87 173.335H1297.87C1297.87 134.61 1260.67 90.2052 1193.46 90.2052V94.2052ZM1293.87 173.335V174.855H1297.87V173.335H1293.87ZM1295.87 172.855H1237.54V176.855H1295.87V172.855ZM1239.54 174.855C1239.54 173.146 1239.32 171.651 1238.91 170L1235.03 170.97C1235.37 172.359 1235.54 173.525 1235.54 174.855H1239.54ZM1238.93 170.111C1237.33 161.708 1232.97 153.527 1225.39 147.454C1217.81 141.377 1207.13 137.515 1193.08 137.515V141.515C1206.38 141.515 1216.13 145.159 1222.89 150.576C1229.66 155.998 1233.56 163.302 1235 170.859L1238.93 170.111ZM1193.08 137.515C1178.08 137.515 1164.79 142.623 1155.27 152.649C1145.74 162.67 1140.16 177.406 1140.16 196.325H1144.16C1144.16 178.194 1149.5 164.526 1158.16 155.404C1166.83 146.288 1179.01 141.515 1193.08 141.515V137.515ZM1140.16 196.325C1140.16 215.051 1145.69 230.238 1155.16 240.768C1164.63 251.313 1177.92 257.035 1193.08 257.035V253.035C1178.97 253.035 1166.8 247.737 1158.13 238.094C1149.45 228.438 1144.16 214.269 1144.16 196.325H1140.16ZM1193.08 257.035C1208.34 257.035 1219.49 253.045 1227.1 246.374C1234.71 239.7 1238.54 230.542 1239.53 220.654L1235.55 220.256C1234.64 229.369 1231.15 237.501 1224.46 243.367C1217.77 249.235 1207.65 253.035 1193.08 253.035V257.035ZM1237.54 222.455H1295.87V218.455H1237.54V222.455ZM1293.87 220.455C1293.87 256.999 1259.78 300.345 1193.46 300.345V304.345C1261.65 304.345 1297.87 259.532 1297.87 220.455H1293.87ZM1325.05 297.785H1323.05V299.785H1325.05V297.785ZM1325.05 0.81514V-1.18486H1323.05V0.81514H1325.05ZM1383.95 0.81514H1385.95V-1.18486H1383.95V0.81514ZM1383.95 123.365H1381.95V129.259L1385.53 124.582L1383.95 123.365ZM1526.07 297.785V299.785H1528.07V297.785H1526.07ZM1467.17 297.785H1465.17V299.785H1467.17V297.785ZM1383.95 297.785V299.785H1385.95V297.785H1383.95ZM1327.05 297.785V0.81514H1323.05V297.785H1327.05ZM1325.05 2.81514H1383.95V-1.18486H1325.05V2.81514ZM1381.95 0.81514V123.365H1385.95V0.81514H1381.95ZM1385.53 124.582C1400.13 105.555 1423.26 94.2052 1451.78 94.2052V90.2052C1422.15 90.2052 1397.79 102.035 1382.36 122.148L1385.53 124.582ZM1451.78 94.2052C1476.05 94.2052 1494.01 101.705 1505.94 115.28C1517.91 128.899 1524.07 148.926 1524.07 174.475H1528.07C1528.07 148.344 1521.78 127.236 1508.95 112.64C1496.08 98.0008 1476.9 90.2052 1451.78 90.2052V94.2052ZM1524.07 174.475V297.785H1528.07V174.475H1524.07ZM1526.07 295.785H1467.17V299.785H1526.07V295.785ZM1469.17 297.785V191.005H1465.17V297.785H1469.17ZM1469.17 191.005C1469.17 175.4 1466.79 162.75 1460.35 153.982C1453.8 145.073 1443.36 140.555 1428.22 140.555V144.555C1442.53 144.555 1451.56 148.778 1457.12 156.351C1462.79 164.065 1465.17 175.641 1465.17 191.005H1469.17ZM1428.22 140.555C1413.24 140.555 1401.59 145.316 1393.7 153.935C1385.84 162.527 1381.95 174.701 1381.95 189.105H1385.95C1385.95 175.389 1389.65 164.288 1396.66 156.635C1403.63 149.009 1414.12 144.555 1428.22 144.555V140.555ZM1381.95 189.105V297.785H1385.95V189.105H1381.95ZM1383.95 295.785H1325.05V299.785H1383.95V295.785Z" fill="url(#paint1_linear_15_1661)" mask="url(#path-1-outside-1_15_1661)"/>
</g>
<defs>
<linearGradient id="paint0_linear_15_1661" x1="766" y1="-2.21484" x2="766" y2="297.939" gradientUnits="userSpaceOnUse">
<stop stop-color="#646464" stop-opacity="0.33"/>
<stop offset="0.0001"/>
<stop offset="0.765" stop-color="#D2D2D2" stop-opacity="0"/>
<stop offset="1" stop-color="white" stop-opacity="0"/>
</linearGradient>
<linearGradient id="paint1_linear_15_1661" x1="737.765" y1="-2.21484" x2="737.765" y2="249.887" gradientUnits="userSpaceOnUse">
<stop stop-color="#D2D2D2" stop-opacity="0.58"/>
<stop offset="1" stop-color="#D2D2D2" stop-opacity="0"/>
</linearGradient>
</defs>
</svg>
