<svg width="20" height="21" viewBox="0 0 20 21" fill="none" xmlns="http://www.w3.org/2000/svg">
    <path
        d="M9.93359 19.625C8.00378 19.625 6.61505 19.624 5.53232 19.519C4.462 19.4153 3.77732 19.2159 3.23091 18.8725C2.6064 18.4802 2.07832 17.9522 1.68591 17.3277C1.34268 16.7813 1.14318 16.0966 1.03955 15.0263C0.934548 13.9435 0.933594 12.5548 0.933594 10.625C0.933594 8.69518 0.934548 7.30645 1.03955 6.22373C1.14318 5.15341 1.34268 4.46873 1.68591 3.92232C2.07831 3.29779 2.60639 2.76971 3.23091 2.37732C3.77732 2.03409 4.462 1.83459 5.53232 1.73095C6.61491 1.62595 8.00364 1.625 9.93359 1.625C11.8634 1.625 13.2521 1.62595 14.3349 1.73095C15.4052 1.83459 16.0899 2.03409 16.6363 2.37732C17.2608 2.76973 17.7888 3.29781 18.1811 3.92232C18.5245 4.46873 18.7239 5.15341 18.8276 6.22373C18.9326 7.30645 18.9336 8.69518 18.9336 10.625C18.9336 12.5548 18.9326 13.9435 18.8276 15.0263C18.7239 16.0966 18.5245 16.7813 18.1811 17.3277C17.7888 17.9521 17.2607 18.4802 16.6363 18.8725C16.0899 19.2159 15.4052 19.4153 14.3349 19.519C13.2521 19.624 11.8634 19.625 9.93359 19.625Z"
        stroke="#BDBDBD" stroke-width="1.5" />
    <path
        d="M9.93368 14.717C12.193 14.717 14.0246 12.8854 14.0246 10.6261C14.0246 8.36672 12.193 6.53516 9.93368 6.53516C7.67434 6.53516 5.84277 8.36672 5.84277 10.6261C5.84277 12.8854 7.67434 14.717 9.93368 14.717Z"
        stroke="#BDBDBD" stroke-width="1.5" />
    <path
        d="M15.2517 6.53267C15.9295 6.53267 16.479 5.9832 16.479 5.3054C16.479 4.62759 15.9295 4.07812 15.2517 4.07812C14.5739 4.07812 14.0244 4.62759 14.0244 5.3054C14.0244 5.9832 14.5739 6.53267 15.2517 6.53267Z"
        fill="#BDBDBD" />
</svg>